<svg xmlns="http://www.w3.org/2000/svg" viewBox="0 0 128.2 118.55"><title>Asset 1</title><g id="Layer_2" data-name="Layer 2"><g id="Layer_1-2" data-name="Layer 1"><path d="M98.28,75.14c3.23-2.73,4.35-5.28,4.25-8.49-.11-3.66-.05-7.33,0-11,0-1.41.58-2.77,2.26-2.74,1.37,0,2,1.18,2,2.43.24,8.95,1.48,18.09-6.78,24.85-3,2.43-2.61,11.61.15,14.47,2.93,3,3.14,6.18.37,9.28a6,6,0,0,1-8.91-.08c-2.72-3.16-2.61-6.53.62-9.2,1.71-1.42,1.82-2.93,1.82-4.79,0-15-.11-30,0-45,0-2.84-.88-4.19-3.49-5.06-4.73-1.57-9.39-3.39-14.05-5.15-3.56-1.35-6.93-2.8-11-1.24-2.5,1-5.29-.07-7.52-1.76a5.32,5.32,0,0,1-.73-8.26c4.45-4.65,13.18-2.94,15.11,3.18a4.17,4.17,0,0,0,3.24,3.2,10.13,10.13,0,0,1,2.8,1.05C93,40.28,106.22,34.67,119.57,27c-5.84-2.44-11.55-4.85-17.29-7.21C90.75,15,79.19,10.3,67.67,5.52,65.78,4.73,64,4.08,61.94,5Q35.46,16,8.86,26.89c1.1,1.75,2.88,1.93,4.33,2.53C29,36,44.89,42.44,60.69,49.07a8.12,8.12,0,0,0,7.08,0c5.46-2.45,11-4.62,16.6-6.87,1.38-.56,3-1.34,3.84.63S87.52,45.42,86,46q-9.92,4.1-19.81,8.24a5.83,5.83,0,0,1-4.79-.34Q32.62,42,3.77,30.15c-1.46-.6-3.56-.87-3.41-3C.48,25.34,2.27,25,3.64,24.46,22.87,16.53,42.1,8.63,61.28.61a7.36,7.36,0,0,1,6.17.15Q95.8,12.53,124.17,24.24c1.58.66,4,.81,3.82,3.25-.13,2-2.3,2.22-3.75,2.83-7.67,3.23-15.37,6.36-23.08,9.49-1.79.73-3.81,1.7-2.64,3.86,1,1.8,2.66-.09,3.83-.54,6.05-2.33,12-4.86,18-7.37a8.31,8.31,0,0,0,3.35-2c.84-1.07,1.26-2.46,2.94-2,1.07.28,1.43,1.25,1.53,2.33.16,1.85-.34,3.22-2.22,4-5.24,2.12-10.45,4.33-15.69,6.47-11.94,4.88-11.95,4.88-12,17.79C98.27,66.32,98.28,70.31,98.28,75.14Zm-33.91-50c-1.49.32-3.82-.11-3.92,2s2.2,2.17,3.75,2.17,3.77,0,3.73-2.2C67.89,25.29,65.78,25.55,64.37,25.19Z"/><path d="M63.7,93.06C51.74,93,40.86,90,31.08,82.65c-9.42-7.08-10.68-16.56-9.6-27.09.15-1.43.68-2.77,2.34-2.63s2,1.59,2,3a85.57,85.57,0,0,1,0,9c-.36,4,1.13,7.08,3.63,10,7.79,9,18,12.64,29.49,13.78,2.32.23,3.31-.46,3.24-3-.15-4.82,0-9.65,0-14.47,0-1.51-.06-3.29,2-3.34s2.11,1.73,2.12,3.25c0,4.49.25,9-.07,13.47-.28,3.84,1.36,4.52,4.65,4a66.54,66.54,0,0,0,13.52-3.3c1.68-.65,4-2.67,5,.29.93,2.69-2,3-3.71,3.71C78.63,92.18,71.24,93.1,63.7,93.06Z"/><path d="M64,63.4c-1.13-.44-2.37-.88-3.59-1.39Q32.35,50.43,4.26,38.83a9.79,9.79,0,0,1-3.09-1.54,3.4,3.4,0,0,1-.23-4.92c1.35-1.51,2.65-.7,3.41,1s2.57,2,4.07,2.57c17.34,7.18,34.7,14.29,52,21.54a8.78,8.78,0,0,0,7.57,0c5.91-2.64,11.93-5,17.93-7.48,1.24-.5,2.7-.91,3.43.76s-.22,2.48-1.62,3.06L65.62,62.91C65.17,63.1,64.68,63.2,64,63.4Z"/><path d="M106.56,115c.31,2-.07,3-1.34,3.43s-2.25-.52-2.59-1.67c-.78-2.68-1.45-5.39-2-8.12a2,2,0,0,1,1.71-2.56,1.89,1.89,0,0,1,2.23,1.49C105.35,110.23,106,112.95,106.56,115Z"/><path d="M89.45,106a2.49,2.49,0,0,1,2.16,1.35c.56,1.11-1.75,10-2.75,10.75a1.65,1.65,0,0,1-2.23.11c-.46-.39-1-1.15-.94-1.6.71-3.19,1.53-6.35,2.45-9.49C88.29,106.57,89.08,106.25,89.45,106Z"/><path d="M98.36,113.58a27.42,27.42,0,0,1-.36,3.53,1.89,1.89,0,0,1-3.62,0,10.21,10.21,0,0,1-.22-3.42c.27-1.91-1.23-5.15,1.79-5.31C99.68,108.2,97.62,111.81,98.36,113.58Z"/></g></g></svg>