<svg xmlns="http://www.w3.org/2000/svg" viewBox="0 0 127.95 119.22"><title>Asset 1</title><g id="Layer_2" data-name="Layer 2"><g id="Layer_1-2" data-name="Layer 1"><path d="M63.76,43.1c-15.48,0-31,0-46.44,0-1.71,0-4.06.85-4.82-1.4-.68-2,1.53-2.73,2.74-3.7,15-12.1,30.17-24.09,45.16-36.26C63-.39,64.65-.72,67.51,1.64c14.92,12.25,30.08,24.2,45.13,36.3,1.22,1,3.4,1.73,2.82,3.68-.7,2.35-3.07,1.44-4.76,1.45C95.06,43.12,79.41,43.09,63.76,43.1Zm30.6-3.92L74.53,23.78C64,15.6,64,15.59,53.61,23.62c-6.34,4.91-12.65,9.86-20,15.56Zm-74.43-.37c5.19,1.32,8.42,0,11.65-2.55C41.17,28.53,51,21.13,60.67,13.44c2.51-2,4.15-2.09,6.79.06,9.81,8,20,15.56,29.84,23.48,3.14,2.52,6.27,2.86,10.76,1.86C93.63,27.28,79.86,16.3,66.15,5.23,64,3.48,62.58,4.61,61,5.92c-6.09,4.92-12.22,9.79-18.33,14.69Z"/><path d="M63.72,119.09c-19.32,0-38.64-.17-58,.12C.84,119.29,0,117.45,0,113.12c0-4.17.88-5.83,5.51-5.81q58.46.27,116.91,0c4.61,0,5.52,1.63,5.53,5.81,0,4.34-.86,6.16-5.77,6.09C102.69,118.93,83.21,119.09,63.72,119.09Zm.27-3.68h57.43c1.4,0,2.63-.09,2.68-2s-.88-2.31-2.45-2.25c-.66,0-1.33,0-2,0H8.29c-.67,0-1.33,0-2,0-1.59-.07-2.5.45-2.44,2.27.05,1.54.86,2,2.2,2,1.17,0,2.33,0,3.5,0Z"/><path d="M64.14,47.41c15.33,0,30.65,0,46,0,1.87,0,4.35-1,5.39,1.39s-.54,4.17-1.72,6a7.79,7.79,0,0,1-5.62,3.84c-4.2.32-4.49,2.74-4.4,6.09.18,6.32.1,12.66,0,19,0,1.28.79,3.24-1.72,3.34s-1.89-1.84-1.9-3.16c-.06-7,0-14-.05-21,0-4.34,1.83-6.93,6.25-7.51a7.23,7.23,0,0,0,2.39-.59c1.15-.6,2.69-1.3,2.3-2.85s-2-.79-3-.79q-44-.07-88,0c-1.13,0-3.06-.86-3.25,1.1-.13,1.37,1.4,2.57,2.63,2.65,8.68.53,8.65,6.47,8.4,12.84-.2,5.32,0,10.66-.08,16C27.76,85,28.56,87,26,87s-1.87-1.87-1.88-3.18c-.06-6.66-.1-13.33,0-20,0-2.78-.18-4.84-3.77-5a8.11,8.11,0,0,1-5.52-3.16c-1.66-1.94-3.32-4.23-2.47-6.73.91-2.68,3.75-1.48,5.75-1.5C33.49,47.37,48.82,47.41,64.14,47.41Z"/><path d="M63.42,103.11H15c-1.33,0-2.66,0-4,0s-2.78.39-2.84-1.75,1.41-1.88,2.7-1.9c2.83,0,5.66,0,8.49,0l95.35,0h2.5c1.37,0,2.71-.06,2.59,2-.1,1.76-1.3,1.64-2.45,1.66-1.66,0-3.33,0-5,0H63.42Z"/><path d="M63.92,95.1H18c-1,0-2,0-3,0-1.23-.08-2.77.39-2.84-1.75s1.41-1.88,2.7-1.9c3.33,0,6.65,0,10,0l84.85,0c1,0,2,0,3,0,1.37.1,3.22-.52,3.08,2-.12,2.16-1.75,1.61-2.93,1.63-4.32.07-8.65,0-13,0Z"/><path d="M37.8,73.72c0,3.66,0,7.33,0,11,0,1.2,0,2.31-1.76,2.35s-1.91-.91-1.91-2.2c0-7.83-.12-15.66.08-23.48a5.58,5.58,0,0,1,5.7-5.81c3.45-.06,5.68,2.32,5.79,5.68.24,7.82.1,15.65.1,23.48,0,1.21,0,2.3-1.77,2.33-2.13,0-1.87-1.45-1.88-2.73,0-6.83,0-13.66-.06-20.49,0-1.79.87-4.62-2.3-4.49-2.68.11-1.88,2.69-1.94,4.36-.11,3.33,0,6.66,0,10Z"/><path d="M50.14,73.22c0-3.67,0-7.33,0-11,.05-3.9,2-6.69,5.92-6.61s5.75,2.9,5.74,6.81c0,7.17,0,14.33,0,21.5,0,1.34.6,3.27-1.94,3.12s-1.67-2.11-1.69-3.38c-.09-6.5,0-13-.09-19.5,0-1.79,1-4.74-2-4.78-3.41-.05-2.17,3.12-2.21,5-.14,6.5,0,13-.09,19.5,0,1.33.63,3.26-1.9,3.17s-1.69-2-1.73-3.33C50.07,80.22,50.14,76.72,50.14,73.22Z"/><path d="M66.14,72.58c0-3.65-.14-7.31,0-11s2.31-6.11,5.95-6c3.35.07,5.54,2.48,5.62,5.87.19,7.63.07,15.28,0,22.91,0,1.29.22,2.75-1.9,2.69s-1.76-1.59-1.77-2.82c0-6.81,0-13.62-.06-20.42,0-1.79.89-4.59-2.27-4.48-2.69.09-1.94,2.64-2,4.31-.07,6.81,0,13.62-.06,20.42,0,1.17.58,2.82-1.57,3-2.46.18-2-1.6-2.06-3C66.11,80.22,66.14,76.4,66.14,72.58Z"/><path d="M90.14,73.29c0-3.16.09-6.32,0-9.47C90,62,91,59.24,87.82,59.33c-2.7.08-2,2.63-2,4.3-.07,6.64,0,13.29-.08,19.93,0,1.26.9,3.27-1.56,3.46-2.88.22-2-2.06-2-3.48q-.12-10.46,0-20.93c0-4.27,2.69-7.51,6-7.09,3.86.49,5.7,3.06,5.71,6.92q0,11,0,21.92c0,1.29.22,2.76-1.89,2.71s-1.76-1.58-1.77-2.82C90.11,80.6,90.14,76.95,90.14,73.29Z"/><path d="M16.12,75.26c0-3,0-6,0-8.94,0-1.21-.43-2.77,1.68-2.88s2,1.28,2,2.62q0,9.19,0,18.38c0,1.32.14,2.73-1.95,2.63s-1.69-1.64-1.72-2.86C16.08,81.22,16.12,78.24,16.12,75.26Z"/><path d="M111.82,75.53c0,3,0,6,0,8.94,0,1.35.08,2.71-2,2.6-1.73-.09-1.68-1.25-1.68-2.41q0-9.44,0-18.87c0-1.19,0-2.29,1.73-2.35,2.09-.07,1.93,1.34,1.94,2.65C111.84,69.24,111.83,72.39,111.82,75.53Z"/></g></g></svg>