<svg xmlns="http://www.w3.org/2000/svg" viewBox="0 0 197.9 228.5"><title>Asset 1</title><g id="Layer_2" data-name="Layer 2"><g id="svg2"><g id="layer1"><path fill="black" id="path3347" d="M78.5,228c-20.9-2-37.2-10.8-44.6-24.2C31.3,199,31,197.6,31,189s.3-10.2,2.9-15.8c7.7-16.6,27.9-27.2,57.9-30.5,5.9-.6,10.8-1.5,10.8-2a23.5,23.5,0,0,0-2.8-5c-2.5-3.8-2.8-5.1-2.8-13.5V113H91.4c-19.4,0-34.8-8.8-42.5-24.4a34.2,34.2,0,0,1-4.2-14.9L44.2,66H0L33,33,66,0H197.9l-5.7,5.8-5.7,5.8v8.7c0,6.2.4,8.9,1.4,9.5,3.4,2,3.6,5,3.6,39.2,0,23.2-.4,34.8-1.1,36.5-2.5,5.6-11.2,5.6-13.7,0-1.6-3.5-1.6-69.3,0-72.8.6-1.4,1.5-2.5,2-2.5s.8-2.6.8-5.8V18.5L164.9,33.1c-14.4,14.4-14.5,14.6-13.3,17.5s1.2,7.6,1.2,13.4c.1,16.1-1.6,19.6-16.5,34.1-12,11.8-13.9,14.5-13.9,20.1,0,3.5,4.2,7.9,19.4,20.8,10.6,8.9,15.8,15.2,18.4,22.2a38.3,38.3,0,0,1,1.8,22.7c-6.2,29.8-40.8,48-83.6,44Zm33.7-12a48.1,48.1,0,0,0,15-4.5c11.2-5.4,16.3-13.2,16.3-24.7s-5-18.4-21.1-30.4l-9-6.7-11.2.6c-17.6.9-29.7,5-38.1,12.7-6.4,5.9-8.6,11-8.6,19.6,0,17.8,14.2,30.2,38,33.4,8.2,1.1,10.1,1.1,18.7,0Zm3.1-114.6a25.5,25.5,0,0,0,7.8-5.9c10.1-13.2,5.2-43.6-9.6-59.8-6.5-7.1-13.2-10.1-21-9.4C77.7,27.6,69.2,38.1,69.2,55c0,23.5,12.6,45.1,28.7,49.1,4.7,1.2,11.5.1,17.4-2.7Z"/></g></g></g></svg>