<?xml version="1.0" encoding="UTF-8" standalone="no"?>
<!DOCTYPE svg PUBLIC "-//W3C//DTD SVG 1.1//EN" "http://www.w3.org/Graphics/SVG/1.1/DTD/svg11.dtd">
<svg width="100%" height="100%" viewBox="0 0 800 800" version="1.1" xmlns="http://www.w3.org/2000/svg" xmlns:xlink="http://www.w3.org/1999/xlink" xml:space="preserve" xmlns:serif="http://www.serif.com/" style="fill-rule:evenodd;clip-rule:evenodd;stroke-linejoin:round;stroke-miterlimit:2;">
    <g id="XMLID_801_">
        <path id="XMLID_802_" d="M186.219,257.368L25.618,257.368C18.49,257.368 12.715,263.146 12.715,270.271L12.715,786.214C12.715,793.342 18.49,799.117 25.618,799.117L186.219,799.117C193.347,799.117 199.123,793.342 199.123,786.214L199.123,270.271C199.123,263.146 193.347,257.368 186.219,257.368Z" style="fill:white;fill-rule:nonzero;"/>
        <path id="XMLID_803_" d="M105.977,0.88C47.541,0.88 0,48.369 0,106.741C0,165.138 47.541,212.645 105.977,212.645C164.366,212.645 211.868,165.135 211.868,106.741C211.871,48.369 164.366,0.88 105.977,0.88Z" style="fill:white;fill-rule:nonzero;"/>
        <path id="XMLID_804_" d="M594.72,244.545C530.217,244.545 482.534,272.274 453.613,303.781L453.613,270.271C453.613,263.146 447.837,257.368 440.71,257.368L286.906,257.368C279.778,257.368 274.003,263.146 274.003,270.271L274.003,786.214C274.003,793.342 279.778,799.117 286.906,799.117L447.156,799.117C454.284,799.117 460.059,793.342 460.059,786.214L460.059,530.942C460.059,444.921 483.425,411.409 543.388,411.409C608.694,411.409 613.884,465.133 613.884,535.368L613.884,786.217C613.884,793.345 619.659,799.12 626.787,799.12L787.097,799.12C794.225,799.12 800,793.345 800,786.217L800,503.213C800,375.303 775.61,244.545 594.72,244.545Z" style="fill:white;fill-rule:nonzero;"/>
    </g>
</svg>
