<?xml version="1.0" encoding="UTF-8" standalone="no"?>
<!DOCTYPE svg PUBLIC "-//W3C//DTD SVG 1.1//EN" "http://www.w3.org/Graphics/SVG/1.1/DTD/svg11.dtd">
<svg width="100%" height="100%" viewBox="0 0 501 68" version="1.1" xmlns="http://www.w3.org/2000/svg" xmlns:xlink="http://www.w3.org/1999/xlink" xml:space="preserve" xmlns:serif="http://www.serif.com/" style="fill-rule:evenodd;clip-rule:evenodd;stroke-linejoin:round;stroke-miterlimit:2;">
    <g transform="matrix(1,0,0,1,-475.805,-386.111)">
        <g transform="matrix(0.607086,0,0,0.607086,599.254,403.946)">
            <path d="M0,59.052L0,20.175L-28.833,57.84C-30.162,59.514 -32.095,60.351 -34.634,60.351C-37.175,60.351 -39.108,59.514 -40.436,57.84L-69.183,20.175L-69.183,59.052L-81.131,59.052L-81.131,4.07C-81.131,2.223 -80.453,0.866 -79.097,0C-77.74,-0.866 -76.052,-1.299 -74.032,-1.299C-72.473,-1.299 -71.232,-1.081 -70.308,-0.649C-69.384,-0.217 -68.547,0.491 -67.797,1.472L-34.462,45.718L-0.866,1.472C-0.116,0.491 0.678,-0.217 1.514,-0.649C2.353,-1.081 3.521,-1.299 5.021,-1.299C7.042,-1.299 8.73,-0.866 10.086,0C11.443,0.866 12.122,2.223 12.122,4.07L12.122,59.052L0,59.052Z" style="fill:rgb(111,162,226);"/>
        </g>
        <g transform="matrix(0.607086,0,0,0.607086,623.63,411.305)">
            <path d="M0,46.93C-4.329,46.93 -7.937,46.569 -10.823,45.848C-13.709,45.126 -16.018,43.972 -17.75,42.384C-19.482,40.797 -20.708,38.719 -21.43,36.15C-22.151,33.58 -22.512,30.421 -22.512,26.669L-22.512,20.348C-22.512,16.596 -22.151,13.421 -21.43,10.824C-20.708,8.227 -19.482,6.134 -17.75,4.547C-16.018,2.958 -13.709,1.804 -10.823,1.083C-7.937,0.362 -4.329,0 0,0L33.942,0L33.942,11.083L0.433,11.083C-1.587,11.083 -3.247,11.228 -4.546,11.517C-5.845,11.805 -6.869,12.31 -7.619,13.033C-8.37,13.753 -8.889,14.749 -9.177,16.019C-9.466,17.289 -9.611,18.876 -9.611,20.782L-9.611,26.323C-9.611,28.169 -9.466,29.713 -9.177,30.955C-8.889,32.196 -8.37,33.192 -7.619,33.942C-6.869,34.693 -5.845,35.227 -4.546,35.544C-3.247,35.862 -1.587,36.02 0.433,36.02L34.029,36.02L34.029,46.93L0,46.93Z" style="fill:rgb(111,162,226);"/>
        </g>
        <g transform="matrix(0.607086,0,0,0.607086,649.344,403.946)">
            <path d="M0,59.052L0,0L34.722,0L34.722,11.343L13.162,11.343L13.162,47.796L34.722,47.796L34.722,59.052L0,59.052ZM34.722,0L46.757,0C51.143,0 54.794,0.362 57.71,1.082C60.624,1.804 62.948,2.959 64.68,4.546C66.412,6.133 67.638,8.226 68.36,10.823C69.082,13.421 69.442,16.568 69.442,20.262L69.442,38.791C69.442,42.543 69.082,45.702 68.36,48.272C67.638,50.841 66.412,52.919 64.68,54.506C62.948,56.094 60.624,57.248 57.71,57.97C54.794,58.691 51.143,59.052 46.757,59.052L34.722,59.052L34.722,47.796L46.237,47.796C48.026,47.796 49.557,47.652 50.826,47.364C52.096,47.074 53.136,46.57 53.943,45.848C54.751,45.126 55.344,44.159 55.719,42.948C56.093,41.736 56.281,40.205 56.281,38.358L56.281,20.868C56.281,19.078 56.123,17.563 55.804,16.322C55.487,15.08 54.939,14.1 54.16,13.378C53.381,12.657 52.356,12.138 51.086,11.819C49.816,11.502 48.2,11.343 46.237,11.343L34.722,11.343L34.722,0Z" style="fill:rgb(111,162,226);"/>
        </g>
        <g transform="matrix(0.607086,0,0,0.607086,708.983,411.305)">
            <path d="M0,46.93C-4.329,46.93 -7.937,46.569 -10.823,45.848C-13.708,45.126 -16.018,43.972 -17.749,42.384C-19.481,40.797 -20.708,38.719 -21.43,36.15C-22.151,33.58 -22.512,30.421 -22.512,26.669L-22.512,20.348C-22.512,16.596 -22.151,13.421 -21.43,10.824C-20.708,8.227 -19.481,6.134 -17.749,4.547C-16.018,2.958 -13.708,1.804 -10.823,1.083C-7.937,0.362 -4.329,0 0,0L7.88,0L7.88,11.083L1.732,11.083C-0.577,11.083 -2.468,11.213 -3.939,11.473C-5.41,11.733 -6.565,12.224 -7.403,12.946C-8.24,13.667 -8.816,14.662 -9.134,15.933C-9.451,17.202 -9.611,18.818 -9.611,20.782L-9.611,26.323C-9.611,28.284 -9.451,29.887 -9.134,31.128C-8.816,32.369 -8.24,33.35 -7.403,34.072C-6.565,34.794 -5.41,35.298 -3.939,35.587C-2.468,35.875 -0.577,36.02 1.732,36.02L7.88,36.02L7.88,46.93L0,46.93ZM7.88,0L15.673,0C20.06,0 23.696,0.362 26.583,1.083C29.468,1.804 31.777,2.973 33.51,4.59C35.241,6.205 36.467,8.313 37.189,10.91C37.91,13.508 38.271,16.683 38.271,20.435L38.271,26.669C38.271,30.421 37.91,33.58 37.189,36.15C36.467,38.719 35.241,40.797 33.51,42.384C31.777,43.972 29.468,45.126 26.583,45.848C23.696,46.569 20.06,46.93 15.673,46.93L7.88,46.93L7.88,36.02L13.941,36.02C16.25,36.02 18.154,35.875 19.656,35.587C21.156,35.298 22.325,34.794 23.163,34.072C23.999,33.35 24.577,32.369 24.894,31.128C25.212,29.887 25.371,28.284 25.371,26.323L25.371,20.782C25.371,18.818 25.212,17.202 24.894,15.933C24.577,14.662 23.999,13.667 23.163,12.946C22.325,12.224 21.156,11.733 19.656,11.473C18.154,11.213 16.25,11.083 13.941,11.083L7.88,11.083L7.88,0Z" style="fill:rgb(111,162,226);"/>
        </g>
        <g transform="matrix(0.607086,0,0,0.607086,760.843,430.912)">
            <path d="M0,-17.664L-13.941,11.256C-14.633,12.699 -15.571,13.839 -16.756,14.676C-17.939,15.513 -19.396,15.932 -21.127,15.932C-23.09,15.932 -24.577,15.513 -25.587,14.676C-26.597,13.839 -27.42,12.699 -28.055,11.256L-46.843,-32.297L-33.77,-32.297L-20.262,-0.692L-6.84,-28.746C-6.033,-30.306 -5.124,-31.503 -4.114,-32.34C-3.103,-33.177 -1.646,-33.596 0.259,-33.596C2.107,-33.596 3.549,-33.206 4.588,-32.427C5.628,-31.647 6.522,-30.42 7.273,-28.746L20.001,-0.692L34.2,-32.297L47.016,-32.297L27.36,11.256C26.725,12.583 25.815,13.695 24.633,14.59C23.449,15.485 21.992,15.932 20.261,15.932C18.587,15.932 17.158,15.485 15.975,14.59C14.79,13.695 13.882,12.583 13.247,11.256L0,-17.664Z" style="fill:rgb(111,162,226);"/>
        </g>
        <g transform="matrix(0.607086,0,0,0.607086,797.71,422.659)">
            <path d="M0,9.526L0,11.691C0,13.133 0.115,14.289 0.347,15.153C0.577,16.019 0.996,16.698 1.603,17.189C2.208,17.679 3.017,18.012 4.026,18.185C5.035,18.357 6.292,18.444 7.792,18.444L17.664,18.444L17.664,28.228L7.792,28.228C0.348,28.228 -4.964,26.813 -8.139,23.985C-11.313,21.158 -12.9,16.627 -12.9,10.391L-12.9,-0.432C-12.9,-3.837 -12.568,-6.709 -11.905,-9.046C-11.241,-11.384 -10.087,-13.261 -8.442,-14.674C-6.797,-16.089 -4.618,-17.114 -1.904,-17.748C0.809,-18.383 4.243,-18.702 8.399,-18.702L17.664,-18.702L17.664,-8.744L8.571,-8.744C6.956,-8.744 5.6,-8.671 4.503,-8.527C3.406,-8.383 2.525,-8.051 1.862,-7.531C1.198,-7.012 0.722,-6.262 0.434,-5.281C0.146,-4.3 0,-2.971 0,-1.297L0,1.213L17.664,1.213L17.664,9.526L0,9.526ZM17.664,-18.702L31.085,-18.702C34.434,-18.702 37.218,-18.383 39.439,-17.748C41.662,-17.114 43.424,-16.235 44.722,-15.108C46.021,-13.982 46.93,-12.626 47.449,-11.038C47.969,-9.451 48.229,-7.734 48.229,-5.887L48.229,9.526L17.664,9.526L17.664,1.213L35.327,1.213L35.327,-4.848C35.327,-6.407 34.938,-7.446 34.159,-7.964C33.38,-8.485 32.008,-8.744 30.046,-8.744L17.664,-8.744L17.664,-18.702ZM17.664,18.444L41.974,18.444L41.974,28.228L17.664,28.228L17.664,18.444Z" style="fill:rgb(111,162,226);"/>
        </g>
        <g transform="matrix(0.607086,0,0,0.607086,429.164,271.008)">
            <rect x="661.585" y="215.947" width="13.162" height="62.082" style="fill:rgb(111,162,226);"/>
        </g>
        <g transform="matrix(0.607086,0,0,0.607086,429.164,271.008)">
            <rect x="681.896" y="215.947" width="13.161" height="62.082" style="fill:rgb(111,162,226);"/>
        </g>
        <g transform="matrix(0.607086,0,0,0.607086,871.837,403.946)">
            <path d="M0,59.052C-4.33,59.052 -7.937,58.691 -10.823,57.97C-13.71,57.248 -16.019,56.094 -17.751,54.506C-19.481,52.919 -20.709,50.841 -21.43,48.272C-22.151,45.702 -22.513,42.543 -22.513,38.791L-22.513,0L-9.438,0L-9.438,38.271C-9.438,40.003 -9.279,41.46 -8.962,42.644C-8.645,43.827 -8.08,44.809 -7.273,45.588C-6.466,46.367 -5.384,46.93 -4.026,47.276C-2.67,47.622 -0.953,47.796 1.125,47.796L36.193,47.796L36.193,59.052L0,59.052Z" style="fill:rgb(41,80,128);"/>
        </g>
        <g transform="matrix(0.607086,0,0,0.607086,429.164,280.207)">
            <path d="M801.968,225.125L781.789,225.125L781.789,215.947L801.968,215.947L801.968,225.125ZM787.205,262.877C783.799,262.877 780.999,262.589 778.806,262.011C776.612,261.434 774.866,260.611 773.567,259.543C772.269,258.475 771.359,257.177 770.84,255.646C770.32,254.117 770.061,252.4 770.061,250.496L770.061,246.08C770.061,244.116 770.306,242.37 770.797,240.841C771.287,239.311 772.139,238.012 773.351,236.944C774.562,235.876 776.222,235.068 778.329,234.52C780.437,233.971 783.105,233.697 786.339,233.697L801.968,233.697L801.968,241.664L787.725,241.664C786.223,241.664 785.04,241.995 784.174,242.658C783.309,243.323 782.874,244.578 782.874,246.426L782.874,249.63C782.874,251.303 783.337,252.458 784.261,253.093C785.185,253.728 786.482,254.046 788.156,254.046L801.968,254.046L801.968,262.877L787.205,262.877ZM801.968,233.697L821.06,233.697L821.06,232.658C821.06,229.656 820.453,227.65 819.242,226.64C818.03,225.631 815.979,225.125 813.094,225.125L801.968,225.125L801.968,215.947L813.094,215.947C816.846,215.947 820.036,216.293 822.661,216.985C825.288,217.678 827.438,218.732 829.112,220.146C830.786,221.561 832.013,223.351 832.792,225.514C833.571,227.679 833.961,230.263 833.961,233.264L833.961,244.694C833.961,248.099 833.628,250.957 832.965,253.265C832.301,255.575 831.146,257.45 829.503,258.893C827.857,260.337 825.663,261.361 822.922,261.968C820.18,262.574 816.73,262.877 812.574,262.877L801.968,262.877L801.968,254.046L812.401,254.046C813.901,254.046 815.2,253.929 816.298,253.699C817.394,253.468 818.289,253.05 818.981,252.443C819.674,251.838 820.194,250.985 820.54,249.888C820.886,248.793 821.06,247.379 821.06,245.646L821.06,241.664L801.968,241.664L801.968,233.697Z" style="fill:rgb(41,80,128);"/>
        </g>
        <g transform="matrix(0.607086,0,0,0.607086,952.416,402.107)">
            <path d="M0,62.082C-4.33,62.082 -7.937,61.721 -10.824,61C-13.71,60.278 -16.02,59.124 -17.75,57.536C-19.481,55.949 -20.709,53.871 -21.431,51.302C-22.152,48.732 -22.513,45.573 -22.513,41.821L-22.513,0L-9.61,0L-9.61,15.152L8.27,15.152L8.27,26.235L-9.61,26.235L-9.61,41.561C-9.61,43.466 -9.467,45.039 -9.179,46.28C-8.89,47.521 -8.371,48.502 -7.62,49.224C-6.869,49.946 -5.845,50.45 -4.546,50.739C-3.247,51.027 -1.587,51.172 0.432,51.172L8.27,51.172L8.27,62.082L0,62.082ZM8.27,15.152L16.451,15.152C20.838,15.152 24.475,15.514 27.361,16.235C30.247,16.956 32.557,18.11 34.288,19.699C36.019,21.286 37.246,23.379 37.968,25.976C38.689,28.573 39.05,31.748 39.05,35.5L39.05,41.821C39.05,45.573 38.689,48.732 37.968,51.302C37.246,53.871 36.019,55.949 34.288,57.536C32.557,59.124 30.247,60.278 27.361,61C24.475,61.721 20.838,62.082 16.451,62.082L8.27,62.082L8.27,51.172L16.018,51.172C18.039,51.172 19.713,51.027 21.04,50.739C22.367,50.45 23.407,49.946 24.157,49.224C24.908,48.502 25.428,47.521 25.716,46.28C26.004,45.039 26.148,43.436 26.148,41.475L26.148,35.934C26.148,33.913 26.004,32.268 25.716,30.998C25.428,29.728 24.908,28.746 24.157,28.054C23.407,27.361 22.367,26.885 21.04,26.625C19.713,26.365 18.039,26.235 16.018,26.235L8.27,26.235L8.27,15.152Z" style="fill:rgb(41,80,128);"/>
        </g>
        <g transform="matrix(0.285351,0,0,0.285351,484.211,411.215)">
            <path d="M0,20.376L20.376,20.376L20.376,14.971L3.438,0L0,0L0,20.376Z" style="fill:rgb(41,80,128);"/>
        </g>
        <g transform="matrix(0.285351,0,0,0.285351,340.794,348.262)">
            <rect x="502.6" y="318.807" width="20.376" height="20.376" style="fill:rgb(41,80,128);"/>
        </g>
        <g transform="matrix(0.285351,0,0,0.285351,340.794,348.262)">
            <rect x="527.408" y="318.807" width="20.376" height="20.376" style="fill:rgb(111,162,226);"/>
        </g>
        <g transform="matrix(0.285351,0,0,0.285351,340.794,348.262)">
            <rect x="552.216" y="318.807" width="20.377" height="20.376" style="fill:rgb(111,162,226);"/>
        </g>
        <g transform="matrix(0.285351,0,0,0.285351,340.794,348.262)">
            <rect x="577.024" y="318.807" width="20.375" height="20.376" style="fill:rgb(41,80,128);"/>
        </g>
        <g transform="matrix(0.285351,0,0,0.285351,340.794,334.253)">
            <rect x="502.6" y="343.354" width="20.376" height="20.376" style="fill:rgb(111,162,226);"/>
        </g>
        <g transform="matrix(0.285351,0,0,0.285351,340.794,334.253)">
            <rect x="527.408" y="343.354" width="20.376" height="20.376" style="fill:rgb(111,162,226);"/>
        </g>
        <g transform="matrix(0.285351,0,0,0.285351,340.794,334.253)">
            <rect x="552.216" y="343.354" width="20.377" height="20.376" style="fill:rgb(41,80,128);"/>
        </g>
        <g transform="matrix(0.285351,0,0,0.285351,340.794,334.253)">
            <rect x="577.024" y="343.354" width="20.375" height="20.376" style="fill:rgb(111,162,226);"/>
        </g>
        <g transform="matrix(0.285351,0,0,0.285351,340.794,320.244)">
            <rect x="502.6" y="367.902" width="20.376" height="20.376" style="fill:rgb(41,80,128);"/>
        </g>
        <g transform="matrix(0.285351,0,0,0.285351,340.794,320.244)">
            <rect x="527.408" y="367.902" width="20.376" height="20.376" style="fill:rgb(111,162,226);"/>
        </g>
        <g transform="matrix(0.285351,0,0,0.285351,491.29,418.22)">
            <path d="M0,20.376L20.376,20.376L20.376,12.349L6.404,0L0,0L0,20.376Z" style="fill:rgb(41,80,128);"/>
        </g>
        <g transform="matrix(0.285351,0,0,0.285351,340.794,320.244)">
            <rect x="552.216" y="367.902" width="20.377" height="20.376" style="fill:rgb(111,162,226);"/>
        </g>
        <g transform="matrix(0.285351,0,0,0.285351,498.369,418.22)">
            <path d="M0,20.376L20.377,20.376L20.377,0L13.974,0L0,12.35L0,20.376Z" style="fill:rgb(111,162,226);"/>
        </g>
        <g transform="matrix(0.285351,0,0,0.285351,340.794,320.244)">
            <rect x="577.024" y="367.902" width="20.375" height="20.376" style="fill:rgb(111,162,226);"/>
        </g>
        <g transform="matrix(0.285351,0,0,0.285351,340.794,306.234)">
            <rect x="502.6" y="392.45" width="20.376" height="20.376" style="fill:rgb(111,162,226);"/>
        </g>
        <g transform="matrix(0.285351,0,0,0.285351,340.794,306.234)">
            <rect x="577.024" y="392.45" width="20.375" height="20.376" style="fill:rgb(41,80,128);"/>
        </g>
        <g transform="matrix(0.285351,0,0,0.285351,505.448,411.215)">
            <path d="M0,20.376L20.375,20.376L20.375,0L16.939,0L0,14.972L0,20.376Z" style="fill:rgb(41,80,128);"/>
        </g>
        <g transform="matrix(0.285351,0,0,0.285351,497.737,398.005)">
            <path d="M0,172.226L-54.764,172.226L-54.764,36.733L-76.858,17.165L-76.858,183.273C-76.858,189.348 -71.887,194.32 -65.811,194.32L0,194.32L0,172.226ZM0,75.32L-43.284,37.063L-76.858,7.328L-76.858,-22.094L0,45.835L0,75.32ZM0,194.32L0,172.226L76.857,172.226L76.857,183.273C76.857,189.348 71.886,194.32 65.81,194.32L0,194.32ZM76.857,-22.094L76.857,164.862L54.765,164.862L54.765,26.919L0,75.32L0,45.835L76.857,-22.094Z" style="fill:rgb(62,110,167);"/>
        </g>
        <g transform="matrix(0.285351,0,0,0.285351,475.805,405.494)">
            <path d="M0,-58.168L52.772,-58.168L52.772,-60.623C52.772,-64.642 56.059,-67.929 60.077,-67.929L93.638,-67.929C97.656,-67.929 100.943,-64.642 100.943,-60.623L100.943,-58.168L153.715,-58.168L115.286,-24.204L76.858,9.761L38.428,-24.204L0,-58.168Z" style="fill:rgb(62,110,167);"/>
        </g>
        <g transform="matrix(0.285351,0,0,0.285351,497.737,398.005)">
            <path d="M0,172.226L0,194.32L65.81,194.32C71.886,194.32 76.857,189.348 76.857,183.273L76.857,172.226L0,172.226ZM76.857,-22.094L76.857,164.862L54.765,164.862L54.765,26.919L0,75.32L0,45.835L76.857,-22.094Z" style="fill:rgb(41,80,128);"/>
        </g>
        <g transform="matrix(0.285351,0,0,0.285351,497.737,408.28)">
            <path d="M0,-77.69L16.78,-77.69C20.799,-77.69 24.085,-74.403 24.085,-70.384L24.085,-67.929L76.857,-67.929L38.428,-33.965L0,0L0,-77.69Z" style="fill:rgb(41,80,128);"/>
        </g>
    </g>
</svg>
