<?xml version="1.0" encoding="UTF-8" standalone="no"?>
<!DOCTYPE svg PUBLIC "-//W3C//DTD SVG 1.1//EN" "http://www.w3.org/Graphics/SVG/1.1/DTD/svg11.dtd">
<svg width="100%" height="100%" viewBox="0 0 44 68" version="1.1" xmlns="http://www.w3.org/2000/svg" xmlns:xlink="http://www.w3.org/1999/xlink" xml:space="preserve" xmlns:serif="http://www.serif.com/" style="fill-rule:evenodd;clip-rule:evenodd;stroke-linejoin:round;stroke-miterlimit:2;">
    <g transform="matrix(1,0,0,1,-475.805,-386.111)">
        <g transform="matrix(0.285351,0,0,0.285351,484.211,411.215)">
            <path d="M0,20.376L20.376,20.376L20.376,14.971L3.438,0L0,0L0,20.376Z" style="fill:rgb(41,80,128);"/>
        </g>
        <g transform="matrix(0.285351,0,0,0.285351,340.794,348.262)">
            <rect x="502.6" y="318.807" width="20.376" height="20.376" style="fill:rgb(41,80,128);"/>
        </g>
        <g transform="matrix(0.285351,0,0,0.285351,340.794,348.262)">
            <rect x="527.408" y="318.807" width="20.376" height="20.376" style="fill:rgb(111,162,226);"/>
        </g>
        <g transform="matrix(0.285351,0,0,0.285351,340.794,348.262)">
            <rect x="552.216" y="318.807" width="20.377" height="20.376" style="fill:rgb(111,162,226);"/>
        </g>
        <g transform="matrix(0.285351,0,0,0.285351,340.794,348.262)">
            <rect x="577.024" y="318.807" width="20.375" height="20.376" style="fill:rgb(41,80,128);"/>
        </g>
        <g transform="matrix(0.285351,0,0,0.285351,340.794,334.253)">
            <rect x="502.6" y="343.354" width="20.376" height="20.376" style="fill:rgb(111,162,226);"/>
        </g>
        <g transform="matrix(0.285351,0,0,0.285351,340.794,334.253)">
            <rect x="527.408" y="343.354" width="20.376" height="20.376" style="fill:rgb(111,162,226);"/>
        </g>
        <g transform="matrix(0.285351,0,0,0.285351,340.794,334.253)">
            <rect x="552.216" y="343.354" width="20.377" height="20.376" style="fill:rgb(41,80,128);"/>
        </g>
        <g transform="matrix(0.285351,0,0,0.285351,340.794,334.253)">
            <rect x="577.024" y="343.354" width="20.375" height="20.376" style="fill:rgb(111,162,226);"/>
        </g>
        <g transform="matrix(0.285351,0,0,0.285351,340.794,320.244)">
            <rect x="502.6" y="367.902" width="20.376" height="20.376" style="fill:rgb(41,80,128);"/>
        </g>
        <g transform="matrix(0.285351,0,0,0.285351,340.794,320.244)">
            <rect x="527.408" y="367.902" width="20.376" height="20.376" style="fill:rgb(111,162,226);"/>
        </g>
        <g transform="matrix(0.285351,0,0,0.285351,491.29,418.22)">
            <path d="M0,20.376L20.376,20.376L20.376,12.349L6.404,0L0,0L0,20.376Z" style="fill:rgb(41,80,128);"/>
        </g>
        <g transform="matrix(0.285351,0,0,0.285351,340.794,320.244)">
            <rect x="552.216" y="367.902" width="20.377" height="20.376" style="fill:rgb(111,162,226);"/>
        </g>
        <g transform="matrix(0.285351,0,0,0.285351,498.369,418.22)">
            <path d="M0,20.376L20.377,20.376L20.377,0L13.974,0L0,12.35L0,20.376Z" style="fill:rgb(111,162,226);"/>
        </g>
        <g transform="matrix(0.285351,0,0,0.285351,340.794,320.244)">
            <rect x="577.024" y="367.902" width="20.375" height="20.376" style="fill:rgb(111,162,226);"/>
        </g>
        <g transform="matrix(0.285351,0,0,0.285351,340.794,306.234)">
            <rect x="502.6" y="392.45" width="20.376" height="20.376" style="fill:rgb(111,162,226);"/>
        </g>
        <g transform="matrix(0.285351,0,0,0.285351,340.794,306.234)">
            <rect x="577.024" y="392.45" width="20.375" height="20.376" style="fill:rgb(41,80,128);"/>
        </g>
        <g transform="matrix(0.285351,0,0,0.285351,505.448,411.215)">
            <path d="M0,20.376L20.375,20.376L20.375,0L16.939,0L0,14.972L0,20.376Z" style="fill:rgb(41,80,128);"/>
        </g>
        <g transform="matrix(0.285351,0,0,0.285351,497.737,398.005)">
            <path d="M0,172.226L-54.764,172.226L-54.764,36.733L-76.858,17.165L-76.858,183.273C-76.858,189.348 -71.887,194.32 -65.811,194.32L0,194.32L0,172.226ZM0,75.32L-43.284,37.063L-76.858,7.328L-76.858,-22.094L0,45.835L0,75.32ZM0,194.32L0,172.226L76.857,172.226L76.857,183.273C76.857,189.348 71.886,194.32 65.81,194.32L0,194.32ZM76.857,-22.094L76.857,164.862L54.765,164.862L54.765,26.919L0,75.32L0,45.835L76.857,-22.094Z" style="fill:rgb(62,110,167);"/>
        </g>
        <g transform="matrix(0.285351,0,0,0.285351,475.805,405.494)">
            <path d="M0,-58.168L52.772,-58.168L52.772,-60.623C52.772,-64.642 56.059,-67.929 60.077,-67.929L93.638,-67.929C97.656,-67.929 100.943,-64.642 100.943,-60.623L100.943,-58.168L153.715,-58.168L115.286,-24.204L76.858,9.761L38.428,-24.204L0,-58.168Z" style="fill:rgb(62,110,167);"/>
        </g>
        <g transform="matrix(0.285351,0,0,0.285351,497.737,398.005)">
            <path d="M0,172.226L0,194.32L65.81,194.32C71.886,194.32 76.857,189.348 76.857,183.273L76.857,172.226L0,172.226ZM76.857,-22.094L76.857,164.862L54.765,164.862L54.765,26.919L0,75.32L0,45.835L76.857,-22.094Z" style="fill:rgb(41,80,128);"/>
        </g>
        <g transform="matrix(0.285351,0,0,0.285351,497.737,408.28)">
            <path d="M0,-77.69L16.78,-77.69C20.799,-77.69 24.085,-74.403 24.085,-70.384L24.085,-67.929L76.857,-67.929L38.428,-33.965L0,0L0,-77.69Z" style="fill:rgb(41,80,128);"/>
        </g>
    </g>
</svg>
