<svg xmlns="http://www.w3.org/2000/svg" viewBox="0 0 29.2 23.9"><title>Asset 2</title><g id="Layer_2" data-name="Layer 2"><g id="Layer_1-2" data-name="Layer 1"><path d="M29.2,2.7a12.92,12.92,0,0,1-3.5,1A6.75,6.75,0,0,0,28.4.4a13.69,13.69,0,0,1-3.8,1.5A6,6,0,0,0,20.2,0a6.12,6.12,0,0,0-6.1,6.1,6.75,6.75,0,0,0,.2,1.4A17.33,17.33,0,0,1,1.8,1.2,4.88,4.88,0,0,0,1,4,5.93,5.93,0,0,0,3.7,9,5,5,0,0,1,1,8.2v.1a6,6,0,0,0,4.9,5.9,7.77,7.77,0,0,1-1.6.2,3.75,3.75,0,0,1-1.1-.1,6,6,0,0,0,5.7,4.2,12.39,12.39,0,0,1-7.5,2.6A6.15,6.15,0,0,1,0,21a14.48,14.48,0,0,0,9,2.9c11.1,0,17.2-9.2,17.2-17.2V5.9A11.45,11.45,0,0,0,29.2,2.7Z" style="fill:#fff"/></g></g></svg>